<?xml version="1.0" encoding="UTF-8" standalone="no"?>
<svg
   xmlns:dc="http://purl.org/dc/elements/1.1/"
   xmlns:cc="http://creativecommons.org/ns#"
   xmlns:rdf="http://www.w3.org/1999/02/22-rdf-syntax-ns#"
   xmlns:svg="http://www.w3.org/2000/svg"
   xmlns="http://www.w3.org/2000/svg"
   xmlns:sodipodi="http://sodipodi.sourceforge.net/DTD/sodipodi-0.dtd"
   xmlns:inkscape="http://www.inkscape.org/namespaces/inkscape"
   width="53.479034mm"
   height="53.479027mm"
   viewBox="0 0 53.479034 53.479027"
   version="1.1"
   id="svg8"
   inkscape:version="1.0.1 (3bc2e813f5, 2020-09-07)"
   sodipodi:docname="welcome-spinner-static.svg">
  <defs
     id="defs2">
    <clipPath
       id="__lottie_element_2">
      <rect
         width="500"
         height="500"
         x="0"
         y="0"
         id="rect229" />
    </clipPath>
    <clipPath
       id="__lottie_element_4">
      <path
         d="M 0,0 H 60 V 60 H 0 Z"
         id="path232" />
    </clipPath>
  </defs>
  <sodipodi:namedview
     id="base"
     pagecolor="#ffffff"
     bordercolor="#666666"
     borderopacity="1.0"
     inkscape:pageopacity="0.0"
     inkscape:pageshadow="2"
     inkscape:zoom="0.35"
     inkscape:cx="-206.44594"
     inkscape:cy="-206.44598"
     inkscape:document-units="mm"
     inkscape:current-layer="layer1"
     inkscape:document-rotation="0"
     showgrid="false"
     inkscape:window-width="1920"
     inkscape:window-height="1017"
     inkscape:window-x="-8"
     inkscape:window-y="-8"
     inkscape:window-maximized="1"
     fit-margin-top="0"
     fit-margin-left="0"
     fit-margin-right="0"
     fit-margin-bottom="0" />
  <metadata
     id="metadata5">
    <rdf:RDF>
      <cc:Work
         rdf:about="">
        <dc:format>image/svg+xml</dc:format>
        <dc:type
           rdf:resource="http://purl.org/dc/dcmitype/StillImage" />
        <dc:title></dc:title>
      </cc:Work>
    </rdf:RDF>
  </metadata>
  <g
     inkscape:label="Livello 1"
     inkscape:groupmode="layer"
     id="layer1"
     transform="translate(-88.165244,-128.23073)">
    <g
       clip-path="url(#__lottie_element_2)"
       id="g369"
       transform="matrix(0.26458333,0,0,0.26458333,54.131252,88.170433)">
      <g
         style="display:block"
         opacity="1"
         id="g261">
        <g
           opacity="1"
           transform="rotate(86.902,128.71424,-183.33857)"
           id="g241">
          <g
             opacity="1"
             id="g239">
            <path
               fill="#f5ce89"
               fill-opacity="1"
               d="m 512.55499,-303.26901 c 0,0 -21.38998,-21.38999 -21.38998,-21.38999 -14.30002,17.43 -22.88001,39.73001 -22.88001,64.04001 0,21.13999 6.48999,40.76999 17.59,56.98999 0,0 23.17001,-19.44 23.17001,-19.44 -6.82,-10.89999 -10.76001,-23.77 -10.76001,-37.54999 0,-15.99002 5.31,-30.77002 14.26999,-42.65002 z"
               id="path237" />
          </g>
        </g>
        <g
           opacity="1"
           transform="rotate(86.902,128.71424,-183.33857)"
           id="g247">
          <g
             opacity="1"
             id="g245">
            <path
               fill="#87d4d1"
               fill-opacity="1"
               d="m 611.995,-203.82899 c -11.88001,8.95999 -26.65998,14.26998 -42.65003,14.26998 -18.20996,0 -34.84997,-6.89 -47.42999,-18.19999 0,0 -23.16998,19.44 -23.16998,19.44 18.21002,17.8 43.11999,28.75999 70.59997,28.75999 24.31006,0 46.61005,-8.58 64.04004,-22.87999 0,0 -21.39001,-21.38999 -21.39001,-21.38999 z"
               id="path243" />
          </g>
        </g>
        <g
           opacity="1"
           transform="rotate(86.902,128.71424,-183.33857)"
           id="g253">
          <g
             opacity="1"
             id="g251">
            <path
               fill="#bad9a4"
               fill-opacity="1"
               d="m 652.815,-317.60901 c 0,0 -23.16998,19.44 -23.16998,19.44 6.82001,10.9 10.76001,23.77002 10.76001,37.55002 0,15.98999 -5.31006,30.76999 -14.27002,42.65 0,0 21.39001,21.39 21.39001,21.39 14.29999,-17.43001 22.88001,-39.73002 22.88001,-64.04 0,-21.14001 -6.49005,-40.77002 -17.59003,-56.99002 z"
               id="path249" />
          </g>
        </g>
        <g
           opacity="1"
           transform="rotate(86.902,128.71424,-183.33857)"
           id="g259">
          <g
             opacity="1"
             id="g257">
            <path
               fill="#f69483"
               fill-opacity="1"
               d="m 569.34497,-361.67899 c -24.31,0 -46.60998,8.57999 -64.03998,22.87998 0,0 21.39002,21.39001 21.39002,21.39001 11.88,-8.95999 26.65997,-14.26999 42.64996,-14.26999 18.21002,0 34.85004,6.88999 47.43005,18.19999 0,0 23.16999,-19.44001 23.16999,-19.44001 -18.21002,-17.79998 -43.12,-28.75998 -70.60004,-28.75998 z"
               id="path255" />
          </g>
        </g>
      </g>
      <g
         style="display:block"
         transform="matrix(0.57032001,0,0,0.57032001,98.695343,108.48216)"
         opacity="1"
         id="g287">
        <g
           opacity="1"
           transform="rotate(86.902,128.71424,-183.33857)"
           id="g267">
          <g
             opacity="1"
             id="g265">
            <path
               fill="#f5ce89"
               fill-opacity="1"
               d="m 512.55499,-303.26901 c 0,0 -21.38998,-21.38999 -21.38998,-21.38999 -14.30002,17.43 -22.88001,39.73001 -22.88001,64.04001 0,21.13999 6.48999,40.76999 17.59,56.98999 0,0 23.17001,-19.44 23.17001,-19.44 -6.82,-10.89999 -10.76001,-23.77 -10.76001,-37.54999 0,-15.99002 5.31,-30.77002 14.26999,-42.65002 z"
               id="path263" />
          </g>
        </g>
        <g
           opacity="1"
           transform="rotate(86.902,128.71424,-183.33857)"
           id="g273">
          <g
             opacity="1"
             id="g271">
            <path
               fill="#87d4d1"
               fill-opacity="1"
               d="m 611.995,-203.82899 c -11.88001,8.95999 -26.65998,14.26998 -42.65003,14.26998 -18.20996,0 -34.84997,-6.89 -47.42999,-18.19999 0,0 -23.16998,19.44 -23.16998,19.44 18.21002,17.8 43.11999,28.75999 70.59997,28.75999 24.31006,0 46.61005,-8.58 64.04004,-22.87999 0,0 -21.39001,-21.38999 -21.39001,-21.38999 z"
               id="path269" />
          </g>
        </g>
        <g
           opacity="1"
           transform="rotate(86.902,128.71424,-183.33857)"
           id="g279">
          <g
             opacity="1"
             id="g277">
            <path
               fill="#bad9a4"
               fill-opacity="1"
               d="m 652.815,-317.60901 c 0,0 -23.16998,19.44 -23.16998,19.44 6.82001,10.9 10.76001,23.77002 10.76001,37.55002 0,15.98999 -5.31006,30.76999 -14.27002,42.65 0,0 21.39001,21.39 21.39001,21.39 14.29999,-17.43001 22.88001,-39.73002 22.88001,-64.04 0,-21.14001 -6.49005,-40.77002 -17.59003,-56.99002 z"
               id="path275" />
          </g>
        </g>
        <g
           opacity="1"
           transform="rotate(86.902,128.71424,-183.33857)"
           id="g285">
          <g
             opacity="1"
             id="g283">
            <path
               fill="#f69483"
               fill-opacity="1"
               d="m 569.34497,-361.67899 c -24.31,0 -46.60998,8.57999 -64.03998,22.87998 0,0 21.39002,21.39001 21.39002,21.39001 11.88,-8.95999 26.65997,-14.26999 42.64996,-14.26999 18.21002,0 34.85004,6.88999 47.43005,18.19999 0,0 23.16999,-19.44001 23.16999,-19.44001 -18.21002,-17.79998 -43.12,-28.75998 -70.60004,-28.75998 z"
               id="path281" />
          </g>
        </g>
      </g>
      <g
         style="display:block"
         transform="matrix(0.22657,0,0,0.22657,177.65302,195.26942)"
         opacity="1"
         id="g313">
        <g
           opacity="1"
           transform="rotate(86.902,128.71424,-183.33857)"
           id="g293">
          <g
             opacity="1"
             id="g291">
            <path
               fill="#f5ce89"
               fill-opacity="1"
               d="m 512.55499,-303.26901 c 0,0 -21.38998,-21.38999 -21.38998,-21.38999 -14.30002,17.43 -22.88001,39.73001 -22.88001,64.04001 0,21.13999 6.48999,40.76999 17.59,56.98999 0,0 23.17001,-19.44 23.17001,-19.44 -6.82,-10.89999 -10.76001,-23.77 -10.76001,-37.54999 0,-15.99002 5.31,-30.77002 14.26999,-42.65002 z"
               id="path289" />
          </g>
        </g>
        <g
           opacity="1"
           transform="rotate(86.902,128.71424,-183.33857)"
           id="g299">
          <g
             opacity="1"
             id="g297">
            <path
               fill="#87d4d1"
               fill-opacity="1"
               d="m 611.995,-203.82899 c -11.88001,8.95999 -26.65998,14.26998 -42.65003,14.26998 -18.20996,0 -34.84997,-6.89 -47.42999,-18.19999 0,0 -23.16998,19.44 -23.16998,19.44 18.21002,17.8 43.11999,28.75999 70.59997,28.75999 24.31006,0 46.61005,-8.58 64.04004,-22.87999 0,0 -21.39001,-21.38999 -21.39001,-21.38999 z"
               id="path295" />
          </g>
        </g>
        <g
           opacity="1"
           transform="rotate(86.902,128.71424,-183.33857)"
           id="g305">
          <g
             opacity="1"
             id="g303">
            <path
               fill="#bad9a4"
               fill-opacity="1"
               d="m 652.815,-317.60901 c 0,0 -23.16998,19.44 -23.16998,19.44 6.82001,10.9 10.76001,23.77002 10.76001,37.55002 0,15.98999 -5.31006,30.76999 -14.27002,42.65 0,0 21.39001,21.39 21.39001,21.39 14.29999,-17.43001 22.88001,-39.73002 22.88001,-64.04 0,-21.14001 -6.49005,-40.77002 -17.59003,-56.99002 z"
               id="path301" />
          </g>
        </g>
        <g
           opacity="1"
           transform="rotate(86.902,128.71424,-183.33857)"
           id="g311">
          <g
             opacity="1"
             id="g309">
            <path
               fill="#f69483"
               fill-opacity="1"
               d="m 569.34497,-361.67899 c -24.31,0 -46.60998,8.57999 -64.03998,22.87998 0,0 21.39002,21.39001 21.39002,21.39001 11.88,-8.95999 26.65997,-14.26999 42.64996,-14.26999 18.21002,0 34.85004,6.88999 47.43005,18.19999 0,0 23.16999,-19.44001 23.16999,-19.44001 -18.21002,-17.79998 -43.12,-28.75998 -70.60004,-28.75998 z"
               id="path307" />
          </g>
        </g>
      </g>
      <g
         clip-path="url(#__lottie_element_4)"
         style="display:none"
         id="g367">
        <g
           style="display:none"
           id="g319">
          <g
             id="g317">
            <path
               id="path315"
               d="" />
          </g>
        </g>
        <g
           style="display:none"
           id="g327">
          <g
             id="g325">
            <g
               id="g323">
              <path
                 id="path321"
                 d="" />
            </g>
          </g>
        </g>
        <g
           style="display:none"
           id="g333">
          <g
             id="g331">
            <path
               id="path329"
               d="" />
          </g>
        </g>
        <g
           style="display:none"
           id="g339">
          <g
             id="g337">
            <path
               id="path335"
               d="" />
          </g>
        </g>
        <g
           style="display:none"
           id="g345">
          <g
             id="g343">
            <path
               id="path341"
               d="" />
          </g>
        </g>
        <g
           style="display:none"
           id="g353">
          <g
             id="g351">
            <g
               id="g349">
              <path
                 id="path347"
                 d="" />
            </g>
          </g>
        </g>
        <g
           style="display:none"
           id="g359">
          <g
             id="g357">
            <path
               id="path355"
               d="" />
          </g>
        </g>
        <g
           style="display:none"
           id="g365">
          <g
             id="g363">
            <path
               id="path361"
               d="" />
          </g>
        </g>
      </g>
    </g>
  </g>
</svg>
